<?xml version="1.0" encoding="iso-8859-1"?>
<!-- Generator: Adobe Illustrator 19.2.1, SVG Export Plug-In . SVG Version: 6.00 Build 0)  -->
<svg version="1.1" id="&#x421;&#x43B;&#x43E;&#x439;_1"
	 xmlns="http://www.w3.org/2000/svg" xmlns:xlink="http://www.w3.org/1999/xlink" x="0px" y="0px" viewBox="0 0 300 300"
	 style="enable-background:new 0 0 300 300;" xml:space="preserve">
<g>
	<path d="M200.521,68.439c-0.639-0.651-1.514-0.981-2.6-0.981c-2.722,0-3.87,2.453-4.172,4.143h7.952
		C201.673,70.864,201.485,69.421,200.521,68.439z"/>
	<polygon points="68.602,247.664 68.602,182.445 62.094,247.009 	"/>
	<path d="M123.633,68.439c-0.639-0.651-1.514-0.981-2.6-0.981c-2.722,0-3.87,2.453-4.172,4.143h7.952
		C124.785,70.864,124.597,69.421,123.633,68.439z"/>
	<path d="M172.516,125.146c0.524-0.343,1.102-0.604,1.715-0.76c0.879-0.223,1.896-0.453,2.919-0.684
		c1.375-0.31,2.797-0.63,3.841-0.932c0.284-0.082,0.483-0.352,0.483-0.658v-1.356c-1.186-1.075-2.11-2.662-2.562-4.388
		c-0.619-0.361-1.115-0.976-1.251-1.833c-0.184-1.166-0.344-1.793-0.46-2.251c-0.147-0.579-0.263-1.037-0.263-1.829
		c0-0.959,0.23-1.691,0.686-2.185c-0.017-0.203-0.028-0.42-0.03-0.651c-0.017-2.801,0.94-5.254,2.769-7.094
		c1.857-1.869,4.436-2.898,7.263-2.898c2.904,0,5.526,1.046,7.384,2.944c1.793,1.833,2.709,4.279,2.648,7.073
		c-0.004,0.209-0.016,0.416-0.034,0.62c0.459,0.495,0.691,1.23,0.691,2.191c0,0.792-0.116,1.25-0.263,1.829
		c-0.116,0.458-0.275,1.085-0.46,2.251c-0.14,0.885-0.664,1.511-1.311,1.867c-0.023,0.065-0.047,0.133-0.073,0.2
		c-0.367,0.98-1.193,2.767-2.703,4.139v1.37c0,0.306,0.204,0.578,0.496,0.662c0.909,0.263,2.299,0.508,3.643,0.745
		c1.255,0.222,2.552,0.45,3.586,0.713c0.78,0.199,1.485,0.562,2.1,1.044c2.537-3.284,4.064-7.387,4.064-11.85
		c0-10.715-8.713-19.432-19.422-19.432c-10.709,0-19.422,8.717-19.422,19.432C168.549,117.83,170.038,121.883,172.516,125.146z"/>
	<path d="M197.075,126.734c-1.428-0.253-2.904-0.513-3.98-0.823c-1.682-0.486-2.856-2.048-2.856-3.8v-1.769
		c0-0.717,0.325-1.395,0.89-1.862c0.816-0.671,1.552-1.772,2.021-3.023c0.119-0.318,0.156-0.499,0.168-0.578
		c0.092-0.634,0.542-1.138,1.126-1.321c0.176-1.023,0.328-1.624,0.444-2.078c0.079-0.311,0.124-0.489,0.146-0.68
		c-0.091-0.046-0.177-0.101-0.26-0.165c-0.527-0.408-0.754-1.097-0.571-1.739c0.117-0.408,0.18-0.853,0.191-1.324
		c0.041-1.897-0.553-3.528-1.718-4.718c-1.239-1.267-3.032-1.963-5.05-1.963c-1.951,0-3.708,0.686-4.947,1.934
		c-1.203,1.21-1.832,2.861-1.82,4.772c0.004,0.647,0.135,1.105,0.191,1.3c0.183,0.642-0.043,1.33-0.571,1.739
		c-0.082,0.064-0.169,0.119-0.26,0.165c0.022,0.191,0.067,0.369,0.146,0.68c0.116,0.455,0.268,1.057,0.445,2.085
		c0.581,0.191,1.034,0.693,1.125,1.316c0.013,0.088,0.027,0.175,0.044,0.261c0.259,1.329,0.981,2.633,1.841,3.324
		c0.583,0.467,0.919,1.156,0.919,1.885v1.759c0,1.751-1.168,3.312-2.841,3.796c-1.137,0.328-2.608,0.659-4.029,0.981
		c-0.993,0.223-1.979,0.445-2.834,0.663c-0.086,0.022-0.158,0.076-0.241,0.107c3.466,3.215,8.089,5.198,13.177,5.198
		c5.067,0,9.673-1.967,13.134-5.159c-0.21-0.131-0.436-0.239-0.682-0.302C199.508,127.164,198.271,126.946,197.075,126.734z"/>
	<polygon points="231.397,115.79 237.906,51.221 231.397,50.566 	"/>
	<path d="M72.355,255.317h155.29V42.913H72.355V255.317z M88.282,236.36c-1.045,0-1.925-0.333-2.36-0.618l-0.193-0.126l0.512-1.445
		l0.311,0.198c0.262,0.168,0.96,0.486,1.717,0.486c0.562,0,0.99-0.146,1.274-0.434c0.323-0.329,0.351-0.741,0.348-0.903
		c-0.011-1.031-0.987-1.398-1.895-1.398h-0.93v-1.441h0.93c0.642,0,1.596-0.302,1.596-1.134c0-0.365-0.156-0.978-1.193-0.978
		c-0.603,0-1.196,0.271-1.522,0.503l-0.314,0.224l-0.506-1.398l0.177-0.129c0.48-0.351,1.403-0.705,2.386-0.705
		c1.876,0,2.714,1.156,2.714,2.302c0,0.813-0.396,1.495-1.108,1.946c0.89,0.413,1.434,1.233,1.434,2.229
		C91.66,234.944,90.615,236.36,88.282,236.36z M91.688,223.717H85.7v-1.116l0.987-0.955c2.15-2.038,3.05-3.072,3.063-4.202
		c0-0.896-0.467-1.352-1.388-1.352c-0.723,0-1.32,0.405-1.61,0.646l-0.295,0.245l-0.613-1.355l0.168-0.143
		c0.709-0.596,1.627-0.924,2.585-0.924c1.99,0,2.882,1.378,2.882,2.743c0,1.719-1.246,3.047-3.006,4.736l-0.158,0.146h3.373V223.717
		z M87.336,204.785l-0.371-1.454l2.19-1.127h1.268v9.013h-1.691v-7.182L87.336,204.785z M136.166,235.123h-30.259v-3.918h30.259
		V235.123z M136.166,222.387h-30.259v-3.918h30.259V222.387z M136.166,209.653h-30.259v-3.918h30.259V209.653z M140.955,197.463
		H84.357v-3.918h56.598V197.463z M97.636,169.816v3.918H86.534v-3.918H97.636z M86.534,163.504v-3.918h11.102v3.918H86.534z
		 M97.636,180.047v3.918H86.534v-3.918H97.636z M136.166,169.816v3.918h-30.259v-3.918H136.166z M105.907,163.504v-3.918h30.259
		v3.918H105.907z M136.166,180.047v3.918h-30.259v-3.918H136.166z M140.955,150.66H84.357v-3.918h56.598V150.66z M152.554,237.666
		h-3.918v-92.013h3.918V237.666z M176.685,230.577h-13.714v-3.918h13.714V230.577z M176.685,220.346h-13.714v-3.918h13.714V220.346z
		 M176.685,210.116h-13.714v-3.918h13.714V210.116z M212.603,230.577h-30.259v-3.918h30.259V230.577z M209.991,216.428v3.918
		h-27.646v-3.918H209.991z M182.345,210.116v-3.918h26.34v3.918H182.345z M198.157,64.691c5.216,0,7.066,4.296,7.066,7.974
		c0,0.531-0.05,0.955-0.086,1.264l-0.017,0.147c-0.018,0.165-0.158,0.291-0.325,0.291h-11.121c0.24,4.488,3.737,4.982,5.258,4.982
		c2.167,0,3.39-0.391,4.388-0.814c0.089-0.038,0.188-0.034,0.275,0.01c0.085,0.043,0.148,0.122,0.17,0.216l0.505,2.113
		c0.036,0.152-0.041,0.309-0.184,0.374c-1.085,0.487-2.93,1.068-5.56,1.068c-5.071,0-8.347-3.353-8.347-8.543
		C190.18,68.425,193.46,64.691,198.157,64.691z M210.658,113.425c0,12.515-10.177,22.696-22.687,22.696
		c-12.51,0-22.687-10.181-22.687-22.696s10.177-22.697,22.687-22.697C200.481,90.728,210.658,100.91,210.658,113.425z
		 M163.212,65.164c0.062-0.067,0.149-0.105,0.239-0.105h2.596c0.174,0,0.317,0.136,0.326,0.31l0.091,1.768
		c1.207-1.625,2.866-2.447,4.942-2.447c2.053,0,3.805,1.11,4.695,2.935c0.45-0.68,1.001-1.272,1.613-1.73
		c1.105-0.834,2.277-1.205,3.802-1.205c2.748,0,5.685,1.936,5.685,7.37v9.56c0,0.18-0.146,0.327-0.327,0.327h-2.898
		c-0.18,0-0.327-0.146-0.327-0.327v-9.19c0-2.131-0.557-4.672-3.212-4.672c-1.612,0-2.767,1.238-3.197,2.465
		c-0.138,0.411-0.217,0.911-0.217,1.368V81.62c0,0.18-0.146,0.327-0.327,0.327h-2.898c-0.18,0-0.327-0.146-0.327-0.327v-9.727
		c0-2.589-1.15-4.135-3.078-4.135c-1.712,0-2.943,1.413-3.362,2.726c-0.149,0.385-0.221,0.83-0.221,1.342v9.795
		c0,0.18-0.146,0.327-0.327,0.327h-2.898c-0.18,0-0.327-0.146-0.327-0.327V69.78c0-1.809-0.04-3.116-0.135-4.37
		C163.118,65.319,163.15,65.23,163.212,65.164z M160.057,146.741h56.598v3.918h-56.598V146.741z M187.787,178.578v-3.918h25.439
		v3.918H187.787z M213.226,184.81v3.918h-21.041v-3.918H213.226z M188.887,164.51v3.918h-24.34v-3.918H188.887z M170.125,159.586
		v-3.918h36.297v3.918H170.125z M184.488,174.659v3.918h-19.942v-3.918H184.488z M188.887,184.81v3.918h-24.34v-3.918H188.887z
		 M192.185,168.429v-3.918h21.041v3.918H192.185z M160.057,193.544h56.598v3.918h-56.598V193.544z M144.594,65.386
		c0-0.18,0.146-0.327,0.327-0.327h2.966c0.18,0,0.327,0.146,0.327,0.327v8.99c0,3.302,1.052,4.839,3.312,4.839
		c1.907,0,3.135-1.337,3.608-2.481c0.158-0.408,0.246-0.903,0.246-1.386v-9.962c0-0.18,0.146-0.327,0.327-0.327h2.966
		c0.18,0,0.327,0.146,0.327,0.327v11.807c0,1.856,0.042,3.255,0.133,4.402c0.008,0.091-0.024,0.18-0.085,0.247
		c-0.062,0.067-0.149,0.105-0.24,0.105h-2.629c-0.172,0-0.315-0.134-0.326-0.306l-0.114-1.798c-0.833,1.057-2.457,2.473-5.187,2.473
		c-1.79,0-5.954-0.724-5.954-7.437V65.386z M135.206,74.682c-3.741-1.327-4.527-3.399-4.527-4.902c0-2.997,2.449-5.089,5.955-5.089
		c1.5,0,3.061,0.393,4.176,1.052c0.134,0.079,0.193,0.241,0.143,0.388l-0.741,2.147c-0.033,0.094-0.107,0.168-0.2,0.202
		c-0.093,0.033-0.198,0.022-0.283-0.032c-0.424-0.267-1.582-0.888-3.163-0.888c-1.437,0-2.403,0.758-2.403,1.886
		c0,1.047,0.648,1.595,2.89,2.446c3.105,1.177,4.49,2.781,4.49,5.202c0,3.173-2.522,5.223-6.426,5.223
		c-1.731,0-3.462-0.432-4.749-1.185c-0.133-0.078-0.193-0.238-0.145-0.385l0.742-2.247c0.032-0.096,0.107-0.172,0.202-0.205
		c0.097-0.033,0.202-0.021,0.286,0.034c0.858,0.558,2.345,1.122,3.731,1.122c1.779,0,2.841-0.781,2.841-2.089
		C138.025,76.132,137.314,75.456,135.206,74.682z M121.269,64.691c5.216,0,7.066,4.296,7.066,7.974c0,0.531-0.05,0.955-0.086,1.264
		l-0.017,0.147c-0.018,0.165-0.158,0.291-0.325,0.291h-11.121c0.24,4.488,3.736,4.982,5.256,4.982c2.168,0,3.391-0.391,4.389-0.814
		c0.087-0.038,0.188-0.034,0.275,0.01c0.085,0.043,0.148,0.122,0.17,0.216l0.505,2.113c0.036,0.152-0.041,0.309-0.184,0.374
		c-1.085,0.487-2.93,1.068-5.56,1.068c-5.071,0-8.347-3.353-8.347-8.543C113.292,68.425,116.572,64.691,121.269,64.691z
		 M96.311,59.316c0-0.155,0.109-0.289,0.261-0.32c1.466-0.298,3.595-0.477,5.694-0.477c3.214,0,5.309,0.595,6.79,1.93
		c1.22,1.071,1.893,2.684,1.893,4.536c0,2.636-1.431,4.774-3.865,5.833c1.432,0.747,2.388,2.235,2.913,4.525
		c0.695,2.949,1.262,5.274,1.721,6.122c0.055,0.101,0.052,0.224-0.006,0.323c-0.059,0.099-0.166,0.159-0.281,0.159h-3.033
		c-0.119,0-0.228-0.064-0.286-0.169c-0.356-0.645-0.834-2.337-1.549-5.486c-0.64-2.963-1.751-4.045-4.244-4.14h-2.424v9.468
		c0,0.18-0.146,0.327-0.327,0.327h-2.932c-0.18,0-0.327-0.146-0.327-0.327V59.316z M83.781,100.603h57.99v3.918h-57.99V100.603z
		 M83.781,108.874h51.14v3.918h-51.14V108.874z M83.781,117.147h46.399v3.918H83.781V117.147z"/>
	<path d="M107.365,65.319c0-3.179-2.665-3.876-4.9-3.9c-1.186,0-2.062,0.095-2.568,0.2v7.668h2.672
		C105.482,69.286,107.365,67.729,107.365,65.319z"/>
	<polygon points="83.643,33.24 83.045,39.161 130.801,39.161 	"/>
	<polygon points="216.179,266.76 216.954,259.069 171.291,259.069 	"/>
</g>
</svg>
